<svg id="svg" version="1.1" xmlns="http://www.w3.org/2000/svg" xmlns:xlink="http://www.w3.org/1999/xlink" width="400" height="400" viewBox="0, 0, 400,400"><g id="svgg"><path id="path0" d="M66.674 42.992 C 65.270 44.683,66.326 45.629,71.419 47.242 C 81.806 50.534,88.835 55.833,96.299 66.003 C 101.242 72.737,101.514 72.974,103.250 72.045 C 104.204 71.534,104.733 71.611,105.345 72.347 C 105.795 72.890,106.990 73.333,108.000 73.333 C 109.010 73.333,110.228 73.805,110.707 74.382 C 113.816 78.128,122.143 79.251,125.073 76.321 C 127.557 73.837,127.089 71.073,124.136 70.789 C 122.287 70.611,122.005 70.368,122.358 69.257 C 123.718 64.970,113.275 64.002,110.373 68.146 C 109.208 69.809,108.349 69.384,108.964 67.448 C 109.194 66.722,110.496 65.586,111.858 64.923 C 120.338 60.793,133.415 68.161,128.941 74.549 C 126.495 78.041,130.157 79.279,133.385 76.051 C 136.621 72.815,136.254 67.638,132.500 63.557 C 126.309 56.828,140.222 64.224,147.734 71.657 C 165.545 89.276,164.626 112.547,145.731 122.413 C 136.945 127.000,139.179 129.510,149.815 127.002 C 171.579 121.871,179.518 97.002,166.664 74.227 C 164.006 69.517,165.145 69.473,174.412 73.930 C 211.091 91.570,222.958 125.245,198.038 140.976 C 189.511 146.359,201.475 148.959,213.647 144.368 C 222.701 140.954,228.373 141.337,243.946 146.416 C 253.539 149.544,254.356 149.708,255.018 148.637 C 256.219 146.694,246.592 139.087,236.840 134.273 C 232.761 132.259,231.554 131.391,232.390 131.071 C 234.425 130.290,240.789 132.677,250.000 137.676 C 254.950 140.363,261.850 143.540,265.333 144.737 C 272.788 147.299,273.015 147.532,271.196 150.769 C 264.901 161.969,252.278 167.490,238.667 164.997 C 223.972 162.305,222.357 163.600,232.900 169.621 C 236.479 171.665,236.353 172.287,232.167 173.224 C 228.238 174.103,225.479 173.357,212.974 168.029 C 194.150 160.008,186.000 157.670,186.000 160.288 C 186.000 162.806,212.432 179.419,221.714 182.735 C 233.522 186.955,254.493 184.351,265.639 177.283 C 269.773 174.661,269.996 174.718,274.337 179.500 C 291.430 198.331,299.966 226.157,299.233 260.652 C 298.910 275.850,300.711 276.340,305.690 262.408 C 323.131 213.611,299.013 151.993,244.790 106.816 C 234.736 98.440,236.076 98.046,248.237 105.804 C 304.475 141.683,334.237 204.657,326.725 271.884 C 324.795 289.153,329.384 284.808,333.995 265.000 C 348.589 202.303,322.277 139.271,262.838 94.537 C 216.617 59.750,150.797 39.236,110.280 46.989 C 103.286 48.328,101.350 48.268,96.817 46.574 C 85.260 42.255,68.898 40.311,66.674 42.992 M51.932 47.501 C 42.189 53.957,45.867 91.348,57.324 102.324 C 60.990 105.836,61.304 104.097,58.767 94.333 C 54.636 78.433,54.265 60.380,57.999 57.001 C 62.230 53.172,72.416 64.302,83.318 84.667 C 99.078 114.107,111.505 124.256,124.583 118.369 C 127.272 117.158,127.509 117.147,128.100 118.202 C 129.871 121.366,138.802 116.776,141.724 111.200 C 146.400 102.274,135.452 90.172,116.117 82.895 C 108.170 79.903,107.412 81.796,113.956 88.290 C 123.781 98.039,124.633 108.846,115.496 107.816 C 110.044 107.201,103.656 101.076,96.639 89.732 C 93.305 84.344,93.105 83.333,95.373 83.333 C 98.488 83.333,94.483 74.947,86.207 64.141 C 75.105 49.644,59.864 42.245,51.932 47.501 M328.169 71.431 C 327.749 71.851,327.573 73.033,327.778 74.059 C 328.370 77.015,326.712 82.569,324.479 85.112 C 319.610 90.657,313.064 92.044,290.013 92.415 C 276.052 92.640,272.847 92.867,272.024 93.690 C 268.757 96.958,278.415 100.499,303.000 105.048 C 323.732 108.885,324.144 109.144,312.333 110.930 C 289.669 114.357,288.730 116.877,308.944 120.025 C 323.294 122.259,334.453 124.863,335.928 126.320 C 336.952 127.332,337.457 127.203,326.884 128.644 C 317.863 129.874,310.667 132.723,310.667 135.064 C 310.667 136.301,311.099 136.468,318.396 138.036 C 325.501 139.564,337.951 143.438,340.667 144.966 C 342.936 146.243,341.940 146.493,333.000 146.891 C 324.290 147.280,321.168 148.181,321.464 150.222 C 321.604 151.192,322.383 151.805,324.000 152.218 C 333.693 154.693,341.580 158.246,346.333 162.280 C 349.863 165.275,349.082 165.756,342.845 164.430 C 329.071 161.502,323.719 163.233,330.701 168.359 C 345.831 179.465,349.204 196.288,345.579 242.568 C 343.779 265.545,347.963 262.702,356.224 235.333 C 369.646 190.868,367.631 135.730,351.306 100.797 C 343.950 85.056,330.992 68.608,328.169 71.431 M62.333 105.640 C 44.675 110.199,32.198 122.167,35.301 131.570 C 37.174 137.245,42.614 140.067,55.333 141.964 C 64.368 143.311,70.954 147.194,86.140 160.127 C 97.525 169.822,104.607 175.156,110.391 178.390 C 113.590 180.179,114.766 181.232,115.047 182.558 C 118.151 197.179,128.640 212.757,140.991 221.090 C 146.938 225.103,147.820 224.518,148.704 215.977 C 150.214 201.384,153.909 192.072,160.669 185.825 C 164.911 181.905,165.246 180.667,162.067 180.667 C 156.087 180.667,145.625 189.392,141.619 197.721 C 140.311 200.441,139.002 202.667,138.711 202.667 C 136.990 202.667,133.098 190.431,131.931 181.350 C 130.973 173.901,131.143 174.135,124.198 170.667 C 115.749 166.448,109.162 160.852,96.494 147.135 C 89.650 139.725,89.633 140.182,96.885 137.029 C 106.458 132.868,113.132 126.904,109.694 125.585 C 109.159 125.379,105.184 126.131,100.860 127.256 C 91.843 129.600,78.485 132.000,74.449 132.000 C 71.871 132.000,72.328 131.686,81.682 127.032 C 93.400 121.202,97.356 118.068,94.420 116.941 C 93.918 116.748,89.343 118.225,84.254 120.223 C 66.036 127.375,58.502 128.989,51.667 127.204 C 43.444 125.057,50.879 115.961,66.000 109.668 C 74.682 106.055,72.027 103.138,62.333 105.640 M159.111 193.111 C 155.629 196.593,177.757 212.304,201.667 223.328 C 236.987 239.611,251.320 254.656,252.492 276.675 C 253.457 294.790,244.464 311.251,227.500 322.424 C 221.745 326.214,221.383 326.658,222.977 327.981 C 225.155 329.789,239.210 323.532,247.134 317.226 C 270.451 298.673,273.185 260.739,252.800 238.620 C 242.397 227.332,231.950 221.679,198.667 209.330 C 188.583 205.588,175.719 200.309,170.079 197.597 C 164.439 194.885,159.764 192.667,159.690 192.667 C 159.616 192.667,159.356 192.867,159.111 193.111 M230.366 213.280 C 229.584 214.545,231.109 215.779,237.815 219.310 C 277.806 240.363,288.979 267.035,272.507 302.128 C 267.379 313.053,268.858 314.224,277.085 305.753 C 306.890 275.063,290.919 231.209,244.250 215.593 C 236.389 212.962,231.106 212.083,230.366 213.280 M156.924 231.623 C 156.723 232.149,157.072 234.698,157.701 237.286 C 161.389 252.460,157.102 263.333,143.433 273.472 C 134.819 279.863,131.939 282.900,124.973 292.947 C 106.624 319.408,79.457 335.333,52.665 335.333 C 47.076 335.333,48.804 338.377,56.000 341.208 C 82.592 351.671,102.561 352.652,129.333 344.813 C 143.992 340.520,149.607 340.481,161.000 344.590 C 200.895 358.979,232.530 361.883,258.837 353.573 C 292.676 342.883,314.719 313.280,319.331 272.333 C 320.435 262.528,320.038 255.000,318.415 255.000 C 317.344 255.000,316.901 256.292,315.330 264.000 C 302.441 327.256,242.661 357.265,174.000 334.946 C 154.259 328.529,151.336 327.915,139.060 327.608 C 133.226 327.462,128.343 327.232,128.209 327.097 C 127.660 326.549,136.561 324.512,144.192 323.440 C 154.664 321.969,154.995 321.269,147.918 315.560 C 142.287 311.017,142.695 310.625,151.349 312.257 C 160.439 313.972,160.871 312.516,153.667 304.440 C 146.824 296.770,147.075 296.619,157.290 302.269 C 166.363 307.288,167.338 306.577,164.325 297.141 C 161.494 288.276,162.005 288.124,168.030 296.039 C 174.399 304.406,175.693 303.624,174.765 291.968 C 173.940 281.602,174.540 281.120,177.914 289.441 C 181.440 298.139,181.553 298.333,183.073 298.333 C 187.779 298.333,182.723 261.797,176.061 247.670 C 170.816 236.547,158.877 226.536,156.924 231.623 " stroke="none" fill="#000000" fill-rule="evenodd"></path></g></svg>