<svg id="svg" version="1.1" xmlns="http://www.w3.org/2000/svg" xmlns:xlink="http://www.w3.org/1999/xlink" width="400" height="400" viewBox="0, 0, 400,400"><g id="svgg"><path id="path0" d="M135.000 68.766 C 83.272 82.919,54.607 116.603,39.870 180.556 C 37.398 191.280,37.727 242.477,40.337 253.333 C 44.610 271.108,47.757 278.889,50.674 278.889 C 52.137 278.889,53.367 278.264,53.407 277.500 C 53.448 276.736,53.422 264.017,53.349 249.235 C 53.213 221.293,53.690 216.490,58.516 197.223 C 68.769 156.290,96.117 125.636,132.222 114.608 C 182.686 99.194,209.631 112.084,207.450 150.598 C 206.759 162.786,207.160 164.008,211.488 162.922 C 215.556 161.901,225.137 147.684,228.307 137.964 C 243.137 92.493,190.623 53.548,135.000 68.766 M145.556 123.723 C 121.982 132.096,103.247 154.037,95.606 182.222 C 91.712 196.584,91.111 200.180,91.111 209.116 C 91.111 250.179,117.903 296.625,150.556 312.167 C 179.242 325.821,207.190 324.163,260.474 305.646 C 277.150 299.851,285.514 297.309,301.240 293.257 C 316.161 289.413,350.848 293.156,375.388 301.259 C 383.136 303.817,386.625 302.708,385.077 298.179 C 383.369 293.180,351.616 273.337,345.319 273.334 C 344.272 273.334,341.022 272.394,338.097 271.246 C 323.525 265.527,296.841 264.089,273.889 267.785 C 203.617 279.102,174.242 274.557,150.581 248.705 C 128.937 225.056,128.720 188.037,150.069 161.277 C 159.029 150.045,180.475 138.889,193.106 138.889 C 201.846 138.889,203.720 133.980,196.743 129.363 C 184.397 121.193,160.189 118.526,145.556 123.723 M80.835 176.389 C 76.598 181.147,69.058 199.615,66.204 212.222 C 65.167 216.806,63.847 222.652,63.270 225.214 C 61.061 235.035,63.407 253.510,68.884 269.431 C 81.275 305.445,122.945 332.313,168.333 333.555 L 180.556 333.889 180.890 331.016 C 181.316 327.350,179.865 326.245,171.667 323.991 C 135.457 314.033,104.230 289.754,90.560 260.928 C 82.085 243.058,80.208 215.466,85.652 188.769 C 88.386 175.362,86.368 170.176,80.835 176.389 " stroke="none" fill="#000000" fill-rule="evenodd"></path></g></svg>